<svg xmlns="http://www.w3.org/2000/svg" xml:space="preserve" width="840" height="640" viewBox="0 0 555.625 423.333"><path d="m-271.228 326.204-10.186-.742-.106-.019-.106-.02.175-2.447.175-2.447.796-11.642.796-11.642.37-4.992.37-4.992.22-.214.22-.213 4.763.373 4.762.373 5.689.4 5.688.4.486.001h.486l-.184 2.051-.185 2.051-.187.203-.187.203-5.274-.388-5.273-.388-3.07-.18-3.07-.179-.164 1.29-.162 1.291-.31 4.592-.31 4.592.347.214.348.215 2.798.181 2.799.182 4.101.305 4.101.305-.032 2.06-.033 2.059-.168.169-.17.169-4.56-.329-4.562-.329-2.565-.152-2.565-.153-.138.633-.138.633-.385 5.687-.385 5.687.1.101.101.1 2.326.232 2.326.232 5.928.381 5.929.382.183.296.182.296-.106 1.373-.107 1.372-.122.596-.123.595-.723-.033-.722-.033zm51.223-3.096-.143-.463-1.593-8.863-1.593-8.864-1.292-7.221-1.292-7.221-.164-.164-.164-.164-4.168.723-4.169.723-.38.048-.38.047-.336-1.587-.336-1.588-.011-.569-.012-.569 1.257-.279 1.257-.279 6.217-1.087 6.218-1.087 4.208-.767 4.207-.768.186.114.185.115.342 1.998.342 1.999-.105.103-.105.104-3.175.572-3.175.573-1.256.266-1.257.266.004.706.004.706 1.186 6.614 1.187 6.615.79 4.498.79 4.498.878 4.83.878 4.832-.147.218-.146.218-1.903.309-1.903.308h-.789zm-95.888-4.564-2.2-.715-.358-.37-.357-.37-.83-7.011-.83-7.012-.255-2.249-.255-2.249-.13-.358-.13-.358-.37.142-.37.142-2.472 1.837-2.472 1.837-.462.515-.461.515-1.684 5.008-1.683 5.008-.781-.034-.782-.033-1.638-.597-1.638-.598v-.382l2.62-7.777 2.62-7.777 3.457-10.132 3.457-10.131.145-.235.145-.235 2.311.816 2.311.816.076.057.075.057-.532 1.424-.533 1.423-2.478 7.343-2.478 7.342.29-.01.288-.01 8.576-6.605 8.575-6.604h1.264l2.368.826 2.368.827-.002.166-.002.165-5.45 3.969-5.451 3.968-2.154 1.59-2.154 1.591-.076.791-.076.79 1.58 11.643 1.581 11.641-.181.16-.182.158zm139.93-8.4-.62-1.257-1.972-4.233-1.973-4.234-1.722-3.704-1.723-3.704-.738-1.587-.739-1.588-.854-1.852-.854-1.852-.729-1.588-.728-1.587-.991-2.117-.992-2.116-.484-1.121-.484-1.121.452-.242.452-.242 5.16-2.369 5.159-2.368 1.455-.494 1.455-.495 2.381.011 2.382.01 1.192.54 1.193.54.835.703.835.703.91 1.385.912 1.385.7 1.765.699 1.765v3.084l-.794 1.678-.794 1.677v.408l1.603.146 1.602.145 1.435.702 1.435.702.795.964.794.964.931 1.885.932 1.884.291 1.566.292 1.567-.135 1.328-.134 1.328-.718 1.517-.718 1.516-1.533 1.419-1.533 1.42-1.148.64-1.149.643-5.485 2.569-5.484 2.569h-.434zm7.524-6.779 3.505-1.685 1.079-1.079 1.079-1.079.31-1.138.31-1.139-.29-1.572-.29-1.572-.74-1.197-.739-1.197-1.118-.852-1.118-.853-1.166-.175-1.166-.175-1.547.444-1.547.444-2.91 1.352-2.91 1.353-.2.162-.2.163.625 1.308.625 1.31 2.056 4.43 2.056 4.433h.791zm-7.56-15.855 2.776-1.329 1.251-1.25 1.25-1.251.192-1.02.191-1.02-.29-1.383-.29-1.384-.857-1.309-.857-1.309-.945-.522-.944-.523-.794-.165-.794-.166-1.572.411-1.572.412-2.661 1.23-2.662 1.23-.227.19-.227.192 1.197 2.604 1.198 2.604 1.109 2.38 1.11 2.382.272.337.273.337.55-.175.548-.174zM-371.78 292.9l-1.468-.462-1.78-.876-1.78-.877-1.762-1.482-1.762-1.482-1.133-1.657-1.133-1.657-.406-1.367-.406-1.368V279.233l.399-1.532.399-1.531.665-1.407.665-1.406.54-.686.54-.687 1.968 1.328 1.968 1.328v.439l-.86 1.667-.86 1.667v4.016l.726 1.234.726 1.235 1.116.956 1.117.955 1.573.787 1.573.786h3.372l.852-.357.851-.358 1.023-1.031 1.022-1.032.549-1.19.549-1.192.007-1.348.007-1.35-.905-1.491-.904-1.492-2.845-2.803-2.844-2.802-.947-1.427-.947-1.426-.421-1.132-.42-1.133-.034-1.72-.033-1.72.505-1.322.505-1.323 1.011-1.5 1.012-1.5 1.15-.942 1.15-.943 1.303-.577 1.301-.577 1.852-.117 1.853-.117 1.7.444 1.701.444 1.342.674 1.342.673 1.619 1.148 1.618 1.147 1.266 1.4 1.266 1.401.688 1.455.687 1.456-.023 2.249-.022 2.249-.462 1.322-.462 1.323-1.084 1.919-1.084 1.918h-.706l-1.849-1.23-1.849-1.229v-.123l1.074-2.118 1.075-2.117.153-1.484.153-1.484-.452-1.183-.451-1.183-1.438-1.313-1.437-1.314-1.405-.687-1.405-.688-1.371-.162-1.371-.162-1.176.448-1.176.45-.968 1.072-.969 1.072-.406.963-.406.963-.003 1.367-.003 1.368.744 1.278.743 1.278 3.046 3.043 3.047 3.043 1.019 1.575 1.018 1.575.422 1.45.421 1.449-.156 1.498-.157 1.498-.549 1.28-.549 1.281-1.148 1.605-1.148 1.605-1.132.907-1.133.907-1.478.608-1.479.608-1.984-.017-1.985-.018zm235.923-25.988-8.425-18.22.145-.376.144-.377 2.407-2.003 2.407-2.003.32.008.32.008 2.303 1.645 2.303 1.646 5.975 4.1 5.976 4.102 2.305 1.587 2.306 1.588 5.436 3.745 5.436 3.744.326.393.326.392-1.875 1.618-1.874 1.617h-.538l-3.486-2.466-3.487-2.466-.337-.2-.337-.199-4.62 3.874-4.618 3.873-.126.204-.126.204 1.966 4.078 1.965 4.078.008.267.008.267-2.054 1.745-2.054 1.746zm10.506-1.707 3.614-3.07v-.418l-.33-.131-.331-.13-5.821-4.109-5.821-4.107-1.588-1.148-1.587-1.148-.226-.097-.227-.098.188.59.187.591 3.168 6.643 3.167 6.643.54 1.199.54 1.198.267.33.266.332h.38zm-286.33-4.316-1.627-1.83V257.995l.614-.748.614-.747 1.925-2.823 1.925-2.822-.224-.4-.224-.4-3.041-3.525-3.042-3.524-.845-.87-.845-.87-2.728 1.348-2.728 1.348-1.272.671-1.272.671-.58-.167-.58-.168-1.389-1.69-1.39-1.692v-.48l2.845-1.34 2.844-1.341 11.113-5.347 11.112-5.347 4.07-1.954 4.07-1.954.164.02.163.019 1.88 2.163 1.882 2.163.337.55.337.55-10.315 15.458-10.316 15.457-.85 1.257-.852 1.256h-.15zm6.906-15.11.626-.92 3.444-5.027 3.444-5.027 1.4-2.063 1.402-2.063-.098-.087-.098-.088-8.67 4.253-8.67 4.252.071.2.071.2 3.175 3.692 3.175 3.693.051-.049.051-.048zm132.18-6.021-4.942-7.6-.661-2.868-.662-2.868-.118-.118-.118-.118-.311 1.235-.311 1.235-.66-.894-.66-.895-.121-.529-.12-.53-.667-5.67-.667-5.671-.127-.128-.128-.128v.311l-.553 3.791-.554 3.792-.065.067-.065.067-1.895-3.048-1.895-3.049v-.521l1.834-5.754 1.835-5.754.688-12.038.687-12.039.164-2.716.164-2.717 3.2-2.16 3.202-2.16 4.762-3.224 4.763-3.225 5.887-3.983 5.886-3.983.004.575.004.574.526 7.012.525 7.011.167 2.91.167 2.911.19.357.189.358.177-2.739.178-2.738.244-3.44.244-3.44.305-4.498.305-4.497.09-.094.092-.093 8.946 6.028 8.947 6.027 1.19.829 1.191.828 3.598 2.425 3.598 2.425.167 2.586.166 2.586.669 12.039.668 12.038.099.397.099.397 1.772 5.54 1.772 5.539-.309.678-.309.678-1.606 2.58-1.606 2.582-.066-.067-.065-.067-.557-3.819-.557-3.818-.128-.128-.129-.129.003.243.003.242-.71 5.925-.71 5.924-.964 1.484-.966 1.484-3.187 4.895-3.187 4.895-2.681 4.099-2.682 4.099V207.725l2.42-1.598 2.422-1.598.746.532.746.531.132.213.132.214-1.447 2.304-1.447 2.305v.31l2.286 3.731 2.286 3.73.36.388.36.388-1.322-3.948-1.323-3.947.741-.806.742-.806 1.499-1.66 1.499-1.66-1.448-1.873-1.447-1.873v-.196l2.362-1.588 2.362-1.588.192-.312.193-.312.12-2.406.12-2.407-.577-.727-.577-.728-.444.004-.443.004-4.712 1.281-4.71 1.282-3.756-3.358-3.756-3.357-.363-.442-.363-.441h-.504l1.786 2.58 1.786 2.579 1.141 1.617 1.141 1.616-4.421 1.162-4.421 1.161-.334.662-.335.661-.004 7.151-.004 7.15-1.786 1.766-1.786 1.765-1.918-1.826-1.918-1.825-.004-7.09-.004-7.09-.332-.658-.333-.656-10.558-2.974-10.558-2.973-.673.323-.674.323-.354.661-.353.661.134 2.176.134 2.175.252.47.253.471 6.243 4.192 6.243 4.192v39.638l-.066-.007-.066-.007zm38.822-5.35 2.849-4.366 1.625-2.513 1.625-2.514.225-.371.225-.372-.277.171-.277.171-3.005 2.503-3.005 2.502-.166-.185-.166-.185-1.385-3.44-1.384-3.44-.103-.11-.103-.11V239.275l.236-.251.236-.252zm8.198-53.618-.421-4.458-.145-.97-.145-.97-4.942-3.25-4.941-3.249-1.856-1.217-1.856-1.216-.393-.22-.393-.222 5.47 5.525 5.469 5.524 2.182 4.696 2.182 4.695.105-.104.104-.105zm130.146 54.596-10.565-7.502-4.366-3.09-4.366-3.09-.75-.594-.75-.593 1.339-1.898 1.338-1.898.209-.13.21-.129 5.42 3.852 5.42 3.853 3.704 2.653 3.704 2.653 4.597 3.261 4.597 3.261h.43l4.289-6.019 4.289-6.02.19-.214.189-.215 1.772 1.239 1.772 1.239-.117.304-.116.304-5.732 8.065-5.732 8.064-.205.072-.205.073zm-348.041-23.715-.662-.202-1.058-.544-1.058-.543-1.36-1.35-1.36-1.351-1.036-1.784-1.034-1.784-.76-1.587-.759-1.588-1.692-3.551-1.692-3.552.48-.275.481-.275 5.953-2.88 5.954-2.88 3.175-1.528 3.175-1.528 3.836-1.856 3.836-1.856 3.946-1.883 3.945-1.883.073.073.073.072 2.55 5.287 2.55 5.286.642 1.899.641 1.898v3.914l-.425 1.247-.425 1.247-1.322 1.447-1.322 1.446-2.155 1.06-2.156 1.059-1.323.241-1.323.242-1.13-.209-1.13-.209-1.342-.696-1.341-.695h-.216v2.285l-.394 1.327-.395 1.328-.784 1.083-.784 1.082-1.798 1.06-1.798 1.06-1.646.546-1.645.547-1.662-.022-1.662-.023zm4.551-5.518 1.245-.452 1.22-.867 1.222-.868.682-1.49.682-1.49-.276-1.488-.277-1.487-1.654-3.498-1.653-3.497-.424.002-.424.002-4.365 2.137-4.366 2.136-1.124.514-1.125.514v.523l1.831 3.655 1.83 3.654.994.872.993.872.814.354.814.355h1.059l1.058-.001zm15.69-8.616 1.322-.618.841-.71.841-.71.452-1.185.453-1.185-.16-1.352-.16-1.353-1.64-3.408-1.64-3.408h-.194l-3.1 1.488-3.101 1.489-2.183 1.023-2.183 1.023v.571l1.71 3.36 1.708 3.361.739.705.738.705.794.412.793.412 1.323-.001 1.323-.001zm352.689-3.62-11.906-4.762-5.755-2.27-5.755-2.27v-.444l.842-2.15.842-2.15.547.146.547.147 15.214 6.067 15.213 6.068.312-.31.31-.311 2.69-6.747 2.69-6.747.1-.102.099-.101 1.662.604 1.662.604.343.313.342.312-3.765 9.438-3.765 9.437-.282-.006-.28-.006zM-501.415 53.563V-6.364h-22.754V-24.62h66.146v18.256H-480.778v119.856H-501.416zm78.845 59.796V44.37l-.001-68.858 10.187-.07 10.188-.069v138.12H-422.57zm78.582-59.796V-6.364h-22.754V-24.62h66.146v18.256H-323.351v119.856h-20.637zm73.376 59.333.145-.595 1.488-7.673 1.488-7.673.492-2.646.493-2.646 1.753-8.996 1.754-8.995 1.825-9.393 1.825-9.393 1.615-8.334 1.614-8.335 1.98-10.186 1.981-10.187.636-3.307.636-3.307 1.616-8.335 1.617-8.334 1.693-8.731 1.693-8.731.176-.993.175-.992h21.58l.15.596.149.595 2.243 11.641L-217.55-.41l.398 2.117.398 2.116 2.116 10.98 2.116 10.98 2.536 13.23 2.536 13.23 1.175 6.085 1.174 6.085 1.985 10.319 1.986 10.319 2.009 10.45 2.01 10.452.647 3.44.647 3.439.122.33.123.331h-20.508l-1.281-8.136-1.282-8.136-.595-3.704-.595-3.704-.18-1.257-.181-1.256h-26.161v1.081l-1.859 11.829-1.858 11.828-.147.728-.148.727h-20.388zm47.408-43.92-.14-.596-1.468-9.128-1.467-9.128-.63-3.97-.629-3.968-1.336-8.202-1.336-8.202-.935-5.82-.934-5.822-.399-2.513-.398-2.514-.165-.926-.165-.926-.206.926-.207.926-.934 5.821-.934 5.82-1.467 8.997-1.468 8.995-1.077 6.615-1.077 6.615-1.296 7.937-1.295 7.938-.152.86-.151.86h20.407zm63.63-24.544v-69.06l9.034.07 9.034.069 4.73 12.17 4.73 12.172 6.38 16.404 6.381 16.404 1.648 4.233 1.649 4.234 3.663 9.447 3.662 9.448.08-.08.08-.08-.532-3.11-.532-3.11V-24.62h19.844v138.112h-17.927l-1.646-4.3-1.645-4.299-4.632-12.17-4.632-12.171-.86-2.25-.859-2.248-1.599-4.234-1.599-4.233-4.55-11.906-4.551-11.906-2.108-5.557-2.107-5.556-.943-2.514-.942-2.513-.262-.265-.262-.264.186.617.187.618.418 2.16.418 2.161.094 40.415.095 40.415h-20.124zm119.592 68.761-1.455-.244-1.588-.75-1.587-.75-1.128-1.15-1.128-1.152-.55-1.137-.55-1.136-.419-1.388-.419-1.387-.094-18.058-.094-18.058h20.649l.069 14.089.068 14.09 12.634.068 12.634.068V69.054l-2.183-2.076-2.183-2.077-10.319-9.755-10.318-9.755-4.763-4.531-4.762-4.53-3.922-3.687-3.922-3.685-1.022-1.525-1.021-1.525-.554-1.482-.555-1.482-.275-2.732-.275-2.731.096-16.354.095-16.355.608-1.829.608-1.829.6-.95.6-.95 1.13-1.022 1.13-1.02 1.355-.618 1.355-.617 1.72-.277 1.72-.276 22.621.003 22.622.003 1.791.38 1.792.379 1.622.864 1.622.865.999 1.264 1 1.265.54 1.446.542 1.446.27 1.663.27 1.663.001 16.074.002 16.073H-2.94V-7.434l-12.633.072-12.634.073-.069 12.471-.068 12.472L-17.3 28.069l11.047 10.415 9.395 8.818 9.395 8.819 1.28 1.368 1.28 1.368.748 1.469.748 1.469.485 1.573.486 1.574V104.1l-.593 1.887-.593 1.886-.88 1.289-.88 1.288-1.242.842-1.242.843-1.519.613-1.518.613-23.812.039-23.813.04zM-395.55-48.366l.03-.199-.03-12.105-.032-12.104h-4.498v-3.705h13.494v3.705h-4.762v24.606h-4.234zm33.509-13.957.07-14.156h3.96v28.311h-4.101zm33.187 8.145-1.126-6.029-1.441-7.54-1.442-7.54-.144-.596-.143-.596h4.22l.146.86.146.86 1.31 8.07 1.309 8.07.187 1.455.187 1.455 1.374-8.466 1.374-8.467.326-1.918.327-1.919h4.22l-.145.463-.146.463-1.062 5.623-1.063 5.622-1.046 5.49-1.045 5.49-.48 2.514-.478 2.514-2.12.075-2.12.076zm35.401-8.145V-76.48h11.642v3.705h-7.408v8.466h6.35v3.44h-6.35v8.996h7.408v3.704h-11.642zm37.042 0V-76.48h11.607l.663.252.662.252.337.608.337.608.01 5.821.01 5.82-.201.72-.202.72-.502.27-.503.269-1.214.069-1.214.07v.354l2.095 5.776 2.095 5.776.186.474.187.474-2.205-.077-2.206-.078-.331-.926-.332-.926-1.993-5.624-1.994-5.624v-2.378H-246.886V-72.774h-5.556v24.606H-256.411zm42.598 1.852v-12.303h-4.498v-3.705h13.494v3.705h-4.763v24.606H-213.813zm34.208 11.788-.582-.541-.156-.861-.157-.861.078-12.098.079-12.097.603-.603.603-.602h11.672l.646.75.645.751-.073 12.8-.073 12.8-.472.472-.472.473-5.88.08-5.88.079zm9.184-13.508v-10.583h-5.821v21.166h5.82zm29.898-.132V-76.48H-136.876l.127.331.127.33 2.96 7.674 2.96 7.673.231.529.23.53.018-8.534.018-8.533H-126.236v28.311h-3.626l-1.525-4.035-1.526-4.035-1.713-4.498-1.714-4.498-.115-.117-.114-.118.073 8.65.074 8.651h-4.101z" style="fill:currentColor" transform="translate(531.048 86.4)"/></svg>